<svg xmlns="http://www.w3.org/2000/svg">
  <defs>
    <symbol viewBox="0 0 48 48" id="vjs-icon-play">
      <path style=" stroke:none;fill-rule:evenodd;fill:rgb(5.490196%,7.843137%,17.254902%);fill-opacity:1;"
        d="M 13.835938 12.820312 C 14.148438 12.628906 14.539062 12.617188 14.863281 12.785156 L 18.109375 14.472656 C 18.34375 14.59375 18.433594 14.882812 18.3125 15.113281 L 17.785156 16.128906 C 17.664062 16.363281 17.378906 16.453125 17.144531 16.332031 L 15.429688 15.441406 L 15.429688 32.476562 L 31.351562 23.714844 L 21.3125 18.5 C 21.082031 18.378906 20.988281 18.089844 21.109375 17.855469 L 21.636719 16.84375 C 21.757812 16.609375 22.046875 16.519531 22.28125 16.640625 L 34.054688 22.761719 C 34.398438 22.9375 34.613281 23.292969 34.617188 23.679688 C 34.625 24.066406 34.414062 24.421875 34.078125 24.609375 L 14.886719 35.167969 C 14.5625 35.347656 14.167969 35.339844 13.847656 35.152344 C 13.527344 34.964844 13.332031 34.621094 13.332031 34.25 L 13.332031 13.714844 C 13.332031 13.347656 13.523438 13.007812 13.835938 12.820312 Z M 13.835938 12.820312 " />
    </symbol>
    <symbol viewBox="0 0 48 48" id="vjs-icon-pause">
      <path style=" stroke:none;fill-rule:evenodd;fill:rgb(5.490196%,7.843137%,17.254902%);fill-opacity:1;"
        d="M 17.523438 15.144531 C 17.3125 15.144531 17.144531 15.3125 17.144531 15.523438 L 17.144531 32.570312 C 17.144531 32.78125 17.3125 32.953125 17.523438 32.953125 L 18.953125 32.953125 C 19.164062 32.953125 19.332031 32.78125 19.332031 32.570312 L 19.332031 15.523438 C 19.332031 15.3125 19.164062 15.144531 18.953125 15.144531 Z M 29.046875 15.144531 C 28.835938 15.144531 28.667969 15.3125 28.667969 15.523438 L 28.667969 32.570312 C 28.667969 32.78125 28.835938 32.953125 29.046875 32.953125 L 30.476562 32.953125 C 30.6875 32.953125 30.855469 32.78125 30.855469 32.570312 L 30.855469 15.523438 C 30.855469 15.3125 30.6875 15.144531 30.476562 15.144531 Z M 29.046875 15.144531 " />

    </symbol>
    <symbol viewBox="0 0 48 48" id="vjs-icon-audio">
      <path d="M16 10v28l22-14z"></path>
    </symbol>
    <symbol viewBox="0 0 48 48" id="vjs-icon-captions">
      <path d="M16 10v28l22-14z"></path>
    </symbol>
    <symbol viewBox="0 0 48 48" id="vjs-icon-subtitles">
      <path d="M16 10v28l22-14z"></path>
    </symbol>
    <symbol viewBox="0 0 48 48" id="vjs-icon-fullscreen-enter">
      <path style=" stroke:none;fill-rule:evenodd;fill:rgb(5.490196%,7.843137%,17.254902%);fill-opacity:1;"
        d="M 29.039062 7.039062 C 29.046875 6.777344 29.261719 6.566406 29.523438 6.570312 L 35.863281 6.6875 C 36.128906 6.691406 36.335938 6.90625 36.332031 7.171875 L 36.3125 8.3125 C 36.308594 8.574219 36.089844 8.785156 35.828125 8.78125 L 29.488281 8.667969 C 29.226562 8.660156 29.015625 8.445312 29.019531 8.183594 Z M 6.785156 7.300781 C 6.949219 6.910156 7.332031 6.65625 7.753906 6.65625 L 17.601562 6.679688 C 17.867188 6.679688 18.078125 6.894531 18.078125 7.15625 L 18.074219 8.300781 C 18.074219 8.5625 17.863281 8.773438 17.597656 8.773438 L 10.269531 8.757812 L 18.566406 17.125 C 18.75 17.3125 18.75 17.613281 18.5625 17.796875 L 17.75 18.601562 C 17.5625 18.789062 17.261719 18.785156 17.078125 18.597656 L 7.007812 8.441406 C 6.710938 8.140625 6.621094 7.691406 6.785156 7.300781 Z M 40.074219 7.164062 C 40.464844 7.328125 40.71875 7.710938 40.71875 8.136719 L 40.699219 17.984375 C 40.699219 18.246094 40.484375 18.460938 40.222656 18.460938 L 39.078125 18.457031 C 38.816406 18.457031 38.601562 18.242188 38.601562 17.980469 L 38.617188 10.667969 L 30.5 18.785156 C 30.3125 18.972656 30.011719 18.972656 29.824219 18.785156 L 29.019531 17.980469 C 28.832031 17.792969 28.832031 17.492188 29.019531 17.304688 L 38.929688 7.390625 C 39.230469 7.09375 39.679688 7.003906 40.074219 7.164062 Z M 6.65625 18.335938 C 6.394531 18.332031 6.1875 18.117188 6.191406 17.851562 L 6.304688 11.511719 C 6.308594 11.25 6.527344 11.042969 6.789062 11.046875 L 7.933594 11.066406 C 8.195312 11.070312 8.40625 11.289062 8.398438 11.550781 L 8.285156 17.890625 C 8.28125 18.152344 8.0625 18.363281 7.800781 18.359375 Z M 37.675781 39.273438 L 28.988281 30.511719 C 28.800781 30.324219 28.804688 30.023438 28.992188 29.839844 L 29.800781 29.035156 C 29.988281 28.847656 30.289062 28.851562 30.476562 29.035156 L 40.941406 39.589844 C 41.238281 39.890625 41.328125 40.339844 41.164062 40.730469 C 41 41.121094 40.617188 41.375 40.195312 41.375 L 30.347656 41.355469 C 30.082031 41.355469 29.871094 41.144531 29.871094 40.878906 L 29.875 39.738281 C 29.875 39.472656 30.085938 39.261719 30.351562 39.261719 Z M 8.929688 37.269531 L 17.046875 29.15625 C 17.230469 28.96875 17.53125 28.96875 17.71875 29.15625 L 18.527344 29.964844 C 18.710938 30.148438 18.710938 30.453125 18.527344 30.636719 L 8.617188 40.546875 C 8.316406 40.84375 7.867188 40.933594 7.476562 40.773438 C 7.082031 40.609375 6.828125 40.226562 6.828125 39.800781 L 6.851562 29.953125 C 6.851562 29.691406 7.066406 29.476562 7.328125 29.480469 L 8.46875 29.480469 C 8.734375 29.480469 8.945312 29.695312 8.945312 29.957031 Z M 41.289062 29.695312 C 41.554688 29.699219 41.761719 29.917969 41.757812 30.179688 L 41.644531 36.519531 C 41.640625 36.78125 41.421875 36.992188 41.160156 36.988281 L 40.015625 36.96875 C 39.753906 36.960938 39.542969 36.746094 39.550781 36.480469 L 39.664062 30.144531 C 39.667969 29.878906 39.882812 29.671875 40.148438 29.675781 Z M 18.507812 40.890625 C 18.503906 41.148438 18.292969 41.355469 18.03125 41.355469 L 11.695312 41.355469 C 11.425781 41.355469 11.210938 41.136719 11.21875 40.871094 L 11.238281 39.730469 C 11.242188 39.46875 11.453125 39.261719 11.714844 39.261719 L 18.050781 39.261719 C 18.316406 39.261719 18.53125 39.480469 18.527344 39.746094 Z M 18.507812 40.890625 " />


    </symbol>
    <symbol viewBox="0 0 48 48" id="vjs-icon-fullscreen-exit">
      <path style=" stroke:none;fill-rule:evenodd;fill:rgb(5.490196%,7.843137%,17.254902%);fill-opacity:1;"
        d="M 15.472656 17.296875 L 6.328125 8.09375 C 6.144531 7.90625 6.144531 7.605469 6.332031 7.421875 L 7.140625 6.613281 C 7.328125 6.429688 7.628906 6.429688 7.816406 6.617188 L 18.738281 17.613281 C 19.035156 17.914062 19.125 18.363281 18.960938 18.753906 C 18.796875 19.144531 18.414062 19.398438 17.992188 19.398438 L 8.253906 19.378906 C 7.992188 19.375 7.78125 19.164062 7.78125 18.902344 L 7.78125 17.757812 C 7.78125 17.496094 7.992188 17.28125 8.257812 17.28125 Z M 30.664062 15.949219 L 39.90625 6.707031 C 40.09375 6.523438 40.394531 6.523438 40.578125 6.707031 L 41.386719 7.515625 C 41.574219 7.703125 41.574219 8.003906 41.386719 8.191406 L 30.351562 19.226562 C 30.050781 19.527344 29.601562 19.613281 29.210938 19.453125 C 28.816406 19.289062 28.5625 18.90625 28.5625 18.484375 L 28.585938 8.402344 C 28.585938 8.140625 28.796875 7.925781 29.0625 7.925781 L 30.203125 7.925781 C 30.46875 7.925781 30.679688 8.140625 30.679688 8.402344 Z M 19.078125 7.925781 C 19.34375 7.925781 19.558594 8.144531 19.554688 8.410156 L 19.441406 14.542969 C 19.4375 14.804688 19.21875 15.015625 18.957031 15.011719 L 17.8125 14.988281 C 17.550781 14.984375 17.339844 14.769531 17.347656 14.503906 L 17.460938 8.394531 C 17.464844 8.132812 17.675781 7.925781 17.9375 7.925781 Z M 40.347656 19.570312 C 40.347656 19.835938 40.128906 20.050781 39.863281 20.046875 L 33.417969 19.933594 C 33.15625 19.925781 32.945312 19.710938 32.953125 19.449219 L 32.972656 18.304688 C 32.976562 18.042969 33.195312 17.832031 33.457031 17.835938 L 39.878906 17.953125 C 40.140625 17.957031 40.347656 18.167969 40.347656 18.429688 Z M 7.78125 28.511719 C 7.78125 28.246094 8 28.03125 8.265625 28.035156 L 14.707031 28.148438 C 14.972656 28.152344 15.179688 28.371094 15.175781 28.632812 L 15.15625 29.777344 C 15.152344 30.039062 14.933594 30.25 14.671875 30.242188 L 8.246094 30.128906 C 7.988281 30.125 7.78125 29.914062 7.78125 29.652344 Z M 18.917969 28.628906 C 19.308594 28.792969 19.566406 29.175781 19.5625 29.597656 L 19.542969 39.703125 C 19.542969 39.964844 19.328125 40.179688 19.066406 40.179688 L 17.925781 40.179688 C 17.660156 40.179688 17.449219 39.964844 17.449219 39.703125 L 17.464844 32.128906 L 8.191406 41.402344 C 8.007812 41.585938 7.707031 41.585938 7.519531 41.402344 L 6.710938 40.59375 C 6.527344 40.40625 6.527344 40.105469 6.710938 39.917969 L 17.777344 28.855469 C 18.074219 28.554688 18.527344 28.464844 18.917969 28.628906 Z M 29.167969 29.375 C 29.328125 28.984375 29.710938 28.730469 30.136719 28.730469 L 39.871094 28.753906 C 40.136719 28.753906 40.347656 28.964844 40.347656 29.230469 L 40.347656 30.371094 C 40.347656 30.636719 40.132812 30.847656 39.871094 30.847656 L 32.65625 30.832031 L 41.683594 39.921875 C 41.871094 40.109375 41.871094 40.410156 41.683594 40.59375 L 40.871094 41.398438 C 40.683594 41.585938 40.382812 41.585938 40.199219 41.398438 L 29.390625 30.515625 C 29.09375 30.21875 29.003906 29.765625 29.167969 29.375 Z M 29.050781 40.179688 C 28.78125 40.179688 28.566406 39.960938 28.574219 39.695312 L 28.6875 33.585938 C 28.691406 33.324219 28.90625 33.113281 29.171875 33.121094 L 30.3125 33.140625 C 30.578125 33.144531 30.785156 33.363281 30.78125 33.625 L 30.667969 39.710938 C 30.664062 39.972656 30.453125 40.179688 30.191406 40.179688 Z M 29.050781 40.179688 " />

    </symbol>
    <symbol viewBox="0 0 48 48" id="vjs-icon-play-circle">
      <path
        d="M20 33l12-9-12-9v18zm4-29C12.95 4 4 12.95 4 24s8.95 20 20 20 20-8.95 20-20S35.05 4 24 4zm0 36c-8.82 0-16-7.18-16-16S15.18 8 24 8s16 7.18 16 16-7.18 16-16 16z">
      </path>
    </symbol>
    <symbol viewBox="0 0 48 48" id="vjs-icon-volume-mute">
      <path style=" stroke:none;fill-rule:evenodd;fill:rgb(5.490196%,7.843137%,17.254902%);fill-opacity:1;"
        d="M 23.976562 7.246094 C 24.980469 6.351562 26.417969 6.128906 27.648438 6.683594 C 28.871094 7.238281 29.660156 8.449219 29.660156 9.796875 L 29.660156 38.191406 C 29.660156 39.53125 28.875 40.761719 27.640625 41.308594 C 26.421875 41.847656 24.984375 41.640625 23.976562 40.742188 L 23.972656 40.738281 L 14.300781 32.140625 L 12.257812 32.140625 C 9.066406 32.140625 6.476562 29.550781 6.476562 26.359375 L 6.476562 21.628906 C 6.476562 18.4375 9.066406 15.847656 12.257812 15.847656 L 14.300781 15.847656 L 18.59375 12.03125 C 18.792969 11.855469 19.09375 11.875 19.265625 12.070312 L 20.027344 12.921875 C 20.199219 13.121094 20.183594 13.421875 19.988281 13.597656 L 15.394531 17.679688 C 15.203125 17.847656 14.953125 17.941406 14.699219 17.941406 L 12.257812 17.941406 C 10.222656 17.941406 8.570312 19.597656 8.570312 21.628906 L 8.570312 26.359375 C 8.570312 28.390625 10.222656 30.046875 12.257812 30.046875 L 14.699219 30.046875 C 14.953125 30.046875 15.203125 30.140625 15.394531 30.308594 L 25.371094 39.175781 C 25.753906 39.519531 26.308594 39.605469 26.792969 39.390625 C 27.257812 39.183594 27.566406 38.714844 27.566406 38.191406 L 27.566406 9.796875 C 27.566406 9.28125 27.261719 8.808594 26.785156 8.59375 C 26.3125 8.378906 25.757812 8.464844 25.371094 8.808594 L 25.367188 8.8125 L 23.882812 10.132812 C 23.6875 10.308594 23.386719 10.289062 23.210938 10.09375 L 22.449219 9.238281 C 22.277344 9.042969 22.292969 8.742188 22.492188 8.566406 L 23.972656 7.246094 C 23.976562 7.246094 23.976562 7.246094 23.976562 7.246094 Z M 36.132812 24.027344 L 33.878906 21.773438 C 33.695312 21.589844 33.695312 21.289062 33.878906 21.101562 L 34.6875 20.292969 C 34.875 20.109375 35.175781 20.109375 35.363281 20.292969 L 37.613281 22.546875 L 39.867188 20.292969 C 40.054688 20.109375 40.355469 20.109375 40.539062 20.292969 L 41.347656 21.101562 C 41.535156 21.289062 41.535156 21.589844 41.347656 21.773438 L 39.097656 24.027344 L 41.347656 26.28125 C 41.535156 26.464844 41.535156 26.769531 41.347656 26.953125 L 40.539062 27.761719 C 40.355469 27.949219 40.054688 27.949219 39.867188 27.761719 L 37.613281 25.507812 L 35.363281 27.761719 C 35.175781 27.949219 34.875 27.949219 34.6875 27.761719 L 33.878906 26.953125 C 33.695312 26.769531 33.695312 26.464844 33.878906 26.28125 Z M 36.132812 24.027344 " />

    </symbol>
    <symbol viewBox="0 0 48 48" id="vjs-icon-volume-low">
      <path style=" stroke:none;fill-rule:evenodd;fill:rgb(5.490196%,7.843137%,17.254902%);fill-opacity:1;"
        d="M 23.785156 7.246094 C 24.789062 6.351562 26.226562 6.128906 27.457031 6.683594 C 28.679688 7.238281 29.46875 8.449219 29.46875 9.796875 L 29.46875 38.191406 C 29.46875 39.53125 28.683594 40.761719 27.449219 41.308594 C 26.230469 41.847656 24.792969 41.640625 23.785156 40.742188 L 23.785156 40.738281 L 14.109375 32.140625 L 12.066406 32.140625 C 8.875 32.140625 6.285156 29.550781 6.285156 26.359375 L 6.285156 21.628906 C 6.285156 18.4375 8.875 15.847656 12.066406 15.847656 L 14.109375 15.847656 L 18.402344 12.03125 C 18.601562 11.855469 18.902344 11.875 19.078125 12.070312 L 19.835938 12.921875 C 20.011719 13.121094 19.992188 13.421875 19.796875 13.597656 L 15.203125 17.679688 C 15.011719 17.847656 14.765625 17.941406 14.507812 17.941406 L 12.066406 17.941406 C 10.035156 17.941406 8.382812 19.597656 8.382812 21.628906 L 8.382812 26.359375 C 8.382812 28.390625 10.035156 30.046875 12.066406 30.046875 L 14.507812 30.046875 C 14.765625 30.046875 15.011719 30.140625 15.203125 30.308594 L 25.179688 39.175781 C 25.5625 39.519531 26.121094 39.605469 26.601562 39.390625 C 27.066406 39.183594 27.375 38.714844 27.375 38.191406 L 27.375 9.796875 C 27.375 9.28125 27.070312 8.808594 26.59375 8.59375 C 26.121094 8.378906 25.566406 8.464844 25.179688 8.808594 L 25.179688 8.8125 L 23.691406 10.132812 C 23.496094 10.308594 23.195312 10.289062 23.019531 10.09375 L 22.261719 9.238281 C 22.085938 9.042969 22.101562 8.742188 22.300781 8.566406 Z M 39.566406 23.601562 C 39.566406 19.601562 38.269531 16.480469 36.523438 14.660156 C 36.34375 14.46875 36.328125 14.167969 36.507812 13.976562 L 37.28125 13.132812 C 37.457031 12.9375 37.757812 12.925781 37.945312 13.113281 C 40.195312 15.394531 41.660156 19.128906 41.660156 23.601562 C 41.660156 28.621094 40.121094 32.609375 37.78125 35.058594 C 37.601562 35.25 37.300781 35.242188 37.117188 35.050781 L 36.328125 34.226562 C 36.148438 34.035156 36.15625 33.734375 36.332031 33.542969 C 38.179688 31.5625 39.566406 28.171875 39.566406 23.601562 Z M 33.640625 23.789062 C 33.617188 21.335938 32.902344 19.5625 31.9375 18.476562 C 31.765625 18.28125 31.75 17.980469 31.925781 17.785156 L 32.699219 16.945312 C 32.878906 16.75 33.179688 16.734375 33.359375 16.925781 C 34.820312 18.46875 35.707031 20.84375 35.734375 23.773438 C 35.765625 27.203125 34.769531 29.621094 33.261719 31.246094 C 33.082031 31.4375 32.78125 31.429688 32.597656 31.238281 L 31.808594 30.414062 C 31.628906 30.222656 31.636719 29.921875 31.8125 29.726562 C 32.859375 28.550781 33.667969 26.695312 33.640625 23.789062 Z M 33.640625 23.789062 " />
    </symbol>
    <symbol viewBox="0 0 48 48" id="vjs-icon-volume-medium">
      <path style=" stroke:none;fill-rule:evenodd;fill:rgb(5.490196%,7.843137%,17.254902%);fill-opacity:1;"
        d="M 23.785156 7.246094 C 24.789062 6.351562 26.226562 6.128906 27.457031 6.683594 C 28.679688 7.238281 29.46875 8.449219 29.46875 9.796875 L 29.46875 38.191406 C 29.46875 39.53125 28.683594 40.761719 27.449219 41.308594 C 26.230469 41.847656 24.792969 41.640625 23.785156 40.742188 L 23.785156 40.738281 L 14.109375 32.140625 L 12.066406 32.140625 C 8.875 32.140625 6.285156 29.550781 6.285156 26.359375 L 6.285156 21.628906 C 6.285156 18.4375 8.875 15.847656 12.066406 15.847656 L 14.109375 15.847656 L 18.402344 12.03125 C 18.601562 11.855469 18.902344 11.875 19.078125 12.070312 L 19.835938 12.921875 C 20.011719 13.121094 19.992188 13.421875 19.796875 13.597656 L 15.203125 17.679688 C 15.011719 17.847656 14.765625 17.941406 14.507812 17.941406 L 12.066406 17.941406 C 10.035156 17.941406 8.382812 19.597656 8.382812 21.628906 L 8.382812 26.359375 C 8.382812 28.390625 10.035156 30.046875 12.066406 30.046875 L 14.507812 30.046875 C 14.765625 30.046875 15.011719 30.140625 15.203125 30.308594 L 25.179688 39.175781 C 25.5625 39.519531 26.121094 39.605469 26.601562 39.390625 C 27.066406 39.183594 27.375 38.714844 27.375 38.191406 L 27.375 9.796875 C 27.375 9.28125 27.070312 8.808594 26.59375 8.59375 C 26.121094 8.378906 25.566406 8.464844 25.179688 8.808594 L 25.179688 8.8125 L 23.691406 10.132812 C 23.496094 10.308594 23.195312 10.289062 23.019531 10.09375 L 22.261719 9.238281 C 22.085938 9.042969 22.101562 8.742188 22.300781 8.566406 Z M 39.566406 23.601562 C 39.566406 19.601562 38.269531 16.480469 36.523438 14.660156 C 36.34375 14.46875 36.328125 14.167969 36.507812 13.976562 L 37.28125 13.132812 C 37.457031 12.9375 37.757812 12.925781 37.945312 13.113281 C 40.195312 15.394531 41.660156 19.128906 41.660156 23.601562 C 41.660156 28.621094 40.121094 32.609375 37.78125 35.058594 C 37.601562 35.25 37.300781 35.242188 37.117188 35.050781 L 36.328125 34.226562 C 36.148438 34.035156 36.15625 33.734375 36.332031 33.542969 C 38.179688 31.5625 39.566406 28.171875 39.566406 23.601562 Z M 33.640625 23.789062 C 33.617188 21.335938 32.902344 19.5625 31.9375 18.476562 C 31.765625 18.28125 31.75 17.980469 31.925781 17.785156 L 32.699219 16.945312 C 32.878906 16.75 33.179688 16.734375 33.359375 16.925781 C 34.820312 18.46875 35.707031 20.84375 35.734375 23.773438 C 35.765625 27.203125 34.769531 29.621094 33.261719 31.246094 C 33.082031 31.4375 32.78125 31.429688 32.597656 31.238281 L 31.808594 30.414062 C 31.628906 30.222656 31.636719 29.921875 31.8125 29.726562 C 32.859375 28.550781 33.667969 26.695312 33.640625 23.789062 Z M 33.640625 23.789062 " />
    </symbol>
    <symbol viewBox="0 0 48 48" id="vjs-icon-volume-high">
      <path style=" stroke:none;fill-rule:evenodd;fill:rgb(5.490196%,7.843137%,17.254902%);fill-opacity:1;"
        d="M 23.785156 7.246094 C 24.789062 6.351562 26.226562 6.128906 27.457031 6.683594 C 28.679688 7.238281 29.46875 8.449219 29.46875 9.796875 L 29.46875 38.191406 C 29.46875 39.53125 28.683594 40.761719 27.449219 41.308594 C 26.230469 41.847656 24.792969 41.640625 23.785156 40.742188 L 23.785156 40.738281 L 14.109375 32.140625 L 12.066406 32.140625 C 8.875 32.140625 6.285156 29.550781 6.285156 26.359375 L 6.285156 21.628906 C 6.285156 18.4375 8.875 15.847656 12.066406 15.847656 L 14.109375 15.847656 L 18.402344 12.03125 C 18.601562 11.855469 18.902344 11.875 19.078125 12.070312 L 19.835938 12.921875 C 20.011719 13.121094 19.992188 13.421875 19.796875 13.597656 L 15.203125 17.679688 C 15.011719 17.847656 14.765625 17.941406 14.507812 17.941406 L 12.066406 17.941406 C 10.035156 17.941406 8.382812 19.597656 8.382812 21.628906 L 8.382812 26.359375 C 8.382812 28.390625 10.035156 30.046875 12.066406 30.046875 L 14.507812 30.046875 C 14.765625 30.046875 15.011719 30.140625 15.203125 30.308594 L 25.179688 39.175781 C 25.5625 39.519531 26.121094 39.605469 26.601562 39.390625 C 27.066406 39.183594 27.375 38.714844 27.375 38.191406 L 27.375 9.796875 C 27.375 9.28125 27.070312 8.808594 26.59375 8.59375 C 26.121094 8.378906 25.566406 8.464844 25.179688 8.808594 L 25.179688 8.8125 L 23.691406 10.132812 C 23.496094 10.308594 23.195312 10.289062 23.019531 10.09375 L 22.261719 9.238281 C 22.085938 9.042969 22.101562 8.742188 22.300781 8.566406 Z M 39.566406 23.601562 C 39.566406 19.601562 38.269531 16.480469 36.523438 14.660156 C 36.34375 14.46875 36.328125 14.167969 36.507812 13.976562 L 37.28125 13.132812 C 37.457031 12.9375 37.757812 12.925781 37.945312 13.113281 C 40.195312 15.394531 41.660156 19.128906 41.660156 23.601562 C 41.660156 28.621094 40.121094 32.609375 37.78125 35.058594 C 37.601562 35.25 37.300781 35.242188 37.117188 35.050781 L 36.328125 34.226562 C 36.148438 34.035156 36.15625 33.734375 36.332031 33.542969 C 38.179688 31.5625 39.566406 28.171875 39.566406 23.601562 Z M 33.640625 23.789062 C 33.617188 21.335938 32.902344 19.5625 31.9375 18.476562 C 31.765625 18.28125 31.75 17.980469 31.925781 17.785156 L 32.699219 16.945312 C 32.878906 16.75 33.179688 16.734375 33.359375 16.925781 C 34.820312 18.46875 35.707031 20.84375 35.734375 23.773438 C 35.765625 27.203125 34.769531 29.621094 33.261719 31.246094 C 33.082031 31.4375 32.78125 31.429688 32.597656 31.238281 L 31.808594 30.414062 C 31.628906 30.222656 31.636719 29.921875 31.8125 29.726562 C 32.859375 28.550781 33.667969 26.695312 33.640625 23.789062 Z M 33.640625 23.789062 " />
    </symbol>
    <symbol viewBox="0 0 48 48" id="vjs-icon-spinner">
      <path
        d="M18.8 21l9.53-16.51C26.94 4.18 25.49 4 24 4c-4.8 0-9.19 1.69-12.64 4.51l7.33 12.69.11-.2zm24.28-3c-1.84-5.85-6.3-10.52-11.99-12.68L23.77 18h19.31zm.52 2H28.62l.58 1 9.53 16.5C41.99 33.94 44 29.21 44 24c0-1.37-.14-2.71-.4-4zm-26.53 4l-7.8-13.5C6.01 14.06 4 18.79 4 24c0 1.37.14 2.71.4 4h14.98l-2.31-4zM4.92 30c1.84 5.85 6.3 10.52 11.99 12.68L24.23 30H4.92zm22.54 0l-7.8 13.51c1.4.31 2.85.49 4.34.49 4.8 0 9.19-1.69 12.64-4.51L29.31 26.8 27.46 30z">
      </path>
    </symbol>
    <symbol viewBox="0 0 24 24" id="vjs-icon-hd">
      <path
        d="M19 3H5a2 2 0 0 0-2 2v14a2 2 0 0 0 2 2h14c1.1 0 2-.9 2-2V5c0-1.1-.9-2-2-2zm-8 12H9.5v-2h-2v2H6V9h1.5v2.5h2V9H11v6zm2-6h4c.55 0 1 .45 1 1v4c0 .55-.45 1-1 1h-4V9zm1.5 4.5h2v-3h-2v3z">
      </path>
    </symbol>
    <symbol viewBox="0 0 48 48" id="vjs-icon-chapters">
      <path d="M6 26h4v-4H6v4zm0 8h4v-4H6v4zm0-16h4v-4H6v4zm8 8h28v-4H14v4zm0 8h28v-4H14v4zm0-20v4h28v-4H14z"></path>
    </symbol>
    <symbol viewBox="0 0 40 40" id="vjs-icon-downloading">
      <path
        d="M18.208 36.875q-3.208-.292-5.979-1.729-2.771-1.438-4.812-3.729-2.042-2.292-3.188-5.229-1.146-2.938-1.146-6.23 0-6.583 4.334-11.416 4.333-4.834 10.833-5.5v3.166q-5.167.75-8.583 4.646Q6.25 14.75 6.25 19.958q0 5.209 3.396 9.104 3.396 3.896 8.562 4.646zM20 28.417L11.542 20l2.083-2.083 4.917 4.916v-11.25h2.916v11.25l4.875-4.916L28.417 20zm1.792 8.458v-3.167q1.833-.25 3.541-.958 1.709-.708 3.167-1.875l2.333 2.292q-1.958 1.583-4.25 2.541-2.291.959-4.791 1.167zm6.791-27.792q-1.541-1.125-3.25-1.854-1.708-.729-3.541-1.021V3.042q2.5.25 4.77 1.208 2.271.958 4.271 2.5zm4.584 21.584l-2.25-2.25q1.166-1.5 1.854-3.209.687-1.708.937-3.541h3.209q-.292 2.5-1.229 4.791-.938 2.292-2.521 4.209zm.541-12.417q-.291-1.833-.958-3.562-.667-1.73-1.833-3.188l2.375-2.208q1.541 1.916 2.458 4.208.917 2.292 1.167 4.75z">
      </path>
    </symbol>
    <symbol viewBox="0 0 48 48" id="vjs-icon-file-download">
      <path
        d="M10.8 40.55q-1.35 0-2.375-1T7.4 37.15v-7.7h3.4v7.7h26.35v-7.7h3.4v7.7q0 1.4-1 2.4t-2.4 1zM24 32.1L13.9 22.05l2.45-2.45 5.95 5.95V7.15h3.4v18.4l5.95-5.95 2.45 2.45z">
      </path>
    </symbol>
    <symbol viewBox="0 0 48 48" id="vjs-icon-file-download-done">
      <path d="M9.8 40.5v-3.45h28.4v3.45zm9.2-9.05L7.4 19.85l2.45-2.35L19 26.65l19.2-19.2 2.4 2.4z"></path>
    </symbol>
    <symbol viewBox="0 0 48 48" id="vjs-icon-file-download-off">
      <path
        d="M4.9 4.75L43.25 43.1 41 45.3l-4.75-4.75q-.05.05-.075.025-.025-.025-.075-.025H10.8q-1.35 0-2.375-1T7.4 37.15v-7.7h3.4v7.7h22.05l-7-7-1.85 1.8L13.9 21.9l1.85-1.85L2.7 7zm26.75 14.7l2.45 2.45-3.75 3.8-2.45-2.5zM25.7 7.15V21.1l-3.4-3.45V7.15z">
      </path>
    </symbol>
    <symbol viewBox="0 0 48 48" id="vjs-icon-share">
      <path
        d="M36 32.17c-1.52 0-2.89.59-3.93 1.54L17.82 25.4c.11-.45.18-.92.18-1.4s-.07-.95-.18-1.4l14.1-8.23c1.07 1 2.5 1.62 4.08 1.62 3.31 0 6-2.69 6-6s-2.69-6-6-6-6 2.69-6 6c0 .48.07.95.18 1.4l-14.1 8.23c-1.07-1-2.5-1.62-4.08-1.62-3.31 0-6 2.69-6 6s2.69 6 6 6c1.58 0 3.01-.62 4.08-1.62l14.25 8.31c-.1.42-.16.86-.16 1.31A5.83 5.83 0 1 0 36 32.17z">
      </path>
    </symbol>
    <symbol viewBox="0 0 48 48" id="vjs-icon-cog">
      <path
        d="M38.86 25.95c.08-.64.14-1.29.14-1.95s-.06-1.31-.14-1.95l4.23-3.31c.38-.3.49-.84.24-1.28l-4-6.93c-.25-.43-.77-.61-1.22-.43l-4.98 2.01c-1.03-.79-2.16-1.46-3.38-1.97L29 4.84c-.09-.47-.5-.84-1-.84h-8c-.5 0-.91.37-.99.84l-.75 5.3a14.8 14.8 0 0 0-3.38 1.97L9.9 10.1a1 1 0 0 0-1.22.43l-4 6.93c-.25.43-.14.97.24 1.28l4.22 3.31C9.06 22.69 9 23.34 9 24s.06 1.31.14 1.95l-4.22 3.31c-.38.3-.49.84-.24 1.28l4 6.93c.25.43.77.61 1.22.43l4.98-2.01c1.03.79 2.16 1.46 3.38 1.97l.75 5.3c.08.47.49.84.99.84h8c.5 0 .91-.37.99-.84l.75-5.3a14.8 14.8 0 0 0 3.38-1.97l4.98 2.01a1 1 0 0 0 1.22-.43l4-6.93c.25-.43.14-.97-.24-1.28l-4.22-3.31zM24 31c-3.87 0-7-3.13-7-7s3.13-7 7-7 7 3.13 7 7-3.13 7-7 7z">
      </path>
    </symbol>
    <symbol viewBox="0 0 48 48" id="vjs-icon-square">
      <path
        d="M36 8H12c-2.21 0-4 1.79-4 4v24c0 2.21 1.79 4 4 4h24c2.21 0 4-1.79 4-4V12c0-2.21-1.79-4-4-4zm0 28H12V12h24v24z">
      </path>
    </symbol>
    <symbol viewBox="0 0 48 48" id="vjs-icon-circle">
      <circle cx="24" cy="24" r="20"></circle>
    </symbol>
    <symbol viewBox="0 0 48 48" id="vjs-icon-circle-outline">
      <path
        d="M24 4C12.95 4 4 12.95 4 24s8.95 20 20 20 20-8.95 20-20S35.05 4 24 4zm0 36c-8.82 0-16-7.18-16-16S15.18 8 24 8s16 7.18 16 16-7.18 16-16 16z">
      </path>
    </symbol>
    <symbol viewBox="0 0 48 48" id="vjs-icon-circle-inner-circle">
      <path
        d="M24 4C12.97 4 4 12.97 4 24s8.97 20 20 20 20-8.97 20-20S35.03 4 24 4zm0 36c-8.82 0-16-7.18-16-16S15.18 8 24 8s16 7.18 16 16-7.18 16-16 16zm6-16c0 3.31-2.69 6-6 6s-6-2.69-6-6 2.69-6 6-6 6 2.69 6 6z">
      </path>
    </symbol>
    <symbol viewBox="0 0 48 48" id="vjs-icon-cancel">
      <path
        d="M24 4C12.95 4 4 12.95 4 24s8.95 20 20 20 20-8.95 20-20S35.05 4 24 4zm10 27.17L31.17 34 24 26.83 16.83 34 14 31.17 21.17 24 14 16.83 16.83 14 24 21.17 31.17 14 34 16.83 26.83 24 34 31.17z">
      </path>
    </symbol>
    <symbol viewBox="0 0 48 48" id="vjs-icon-replay">
      <path
        d="M24 10V2L14 12l10 10v-8c6.63 0 12 5.37 12 12s-5.37 12-12 12-12-5.37-12-12H8c0 8.84 7.16 16 16 16s16-7.16 16-16-7.16-16-16-16z">
      </path>
    </symbol>
    <symbol viewBox="0 0 48 48" id="vjs-icon-repeat">
      <path d="M14 14h20v6l8-8-8-8v6H10v12h4v-8zm20 20H14v-6l-8 8 8 8v-6h24V26h-4v8z"></path>
    </symbol>
    <symbol viewBox="0 96 48 48" id="vjs-icon-replay-5">
      <path
        d="M17.689 98l-8.697 8.696 8.697 8.697 2.486-2.485-4.32-4.319h1.302c4.93 0 9.071 1.722 12.424 5.165 3.352 3.443 5.029 7.638 5.029 12.584h3.55c0-2.958-.553-5.73-1.658-8.313-1.104-2.583-2.622-4.841-4.555-6.774-1.932-1.932-4.19-3.45-6.773-4.555-2.584-1.104-5.355-1.657-8.313-1.657H15.5l4.615-4.615zm-8.08 21.659v13.861h11.357v5.008H9.609V143h12.7c.834 0 1.55-.298 2.146-.894.596-.597.895-1.31.895-2.145v-7.781c0-.835-.299-1.55-.895-2.147a2.929 2.929 0 0 0-2.147-.894h-8.227v-5.096H25.35v-4.384z">
      </path>
    </symbol>
    <symbol viewBox="0 96 48 48" id="vjs-icon-replay-10">
      <path
        d="M42.315 125.63c0-4.997-1.694-9.235-5.08-12.713-3.388-3.479-7.571-5.218-12.552-5.218h-1.315l4.363 4.363-2.51 2.51-8.787-8.786L25.221 97l2.45 2.45-4.662 4.663h1.375c2.988 0 5.788.557 8.397 1.673 2.61 1.116 4.892 2.65 6.844 4.602 1.953 1.953 3.487 4.234 4.602 6.844 1.116 2.61 1.674 5.41 1.674 8.398zM8.183 142v-19.657H3.176V117.8h9.643V142zm13.63 0c-1.156 0-2.127-.393-2.912-1.178-.778-.778-1.168-1.746-1.168-2.902v-16.04c0-1.156.393-2.127 1.178-2.912.779-.779 1.746-1.168 2.902-1.168h7.696c1.156 0 2.126.392 2.911 1.177.779.78 1.168 1.747 1.168 2.903v16.04c0 1.156-.392 2.127-1.177 2.912-.779.779-1.746 1.168-2.902 1.168zm.556-4.636h6.583v-15.02H22.37z">
      </path>
    </symbol>
    <symbol viewBox="0 96 48 48" id="vjs-icon-replay-30">
      <path
        d="M26.047 97l-8.733 8.732 8.733 8.733 2.496-2.494-4.336-4.338h1.307c4.95 0 9.108 1.73 12.474 5.187 3.367 3.458 5.051 7.668 5.051 12.635h3.565c0-2.97-.556-5.751-1.665-8.346-1.109-2.594-2.633-4.862-4.574-6.802-1.94-1.941-4.208-3.466-6.803-4.575-2.594-1.109-5.375-1.664-8.345-1.664H23.85l4.634-4.634zM2.555 117.531v4.688h10.297v5.25H5.873v4.687h6.979v5.156H2.555V142H13.36c1.061 0 1.95-.395 2.668-1.186.718-.79 1.076-1.772 1.076-2.94v-16.218c0-1.168-.358-2.149-1.076-2.94-.717-.79-1.607-1.185-2.668-1.185zm22.482.14c-1.149 0-2.11.39-2.885 1.165-.78.78-1.172 1.744-1.172 2.893v15.943c0 1.149.388 2.11 1.163 2.885.78.78 1.745 1.172 2.894 1.172h7.649c1.148 0 2.11-.388 2.884-1.163.78-.78 1.17-1.745 1.17-2.894v-15.943c0-1.15-.386-2.111-1.16-2.885-.78-.78-1.746-1.172-2.894-1.172zm.553 4.518h6.545v14.93H25.59z">
      </path>
    </symbol>
    <symbol viewBox="0 96 48 48" id="vjs-icon-forward-5">
      <path
        d="M29.508 97l-2.431 2.43 4.625 4.625h-1.364c-2.965 0-5.742.554-8.332 1.66-2.589 1.107-4.851 2.629-6.788 4.566-1.937 1.937-3.458 4.2-4.565 6.788-1.107 2.59-1.66 5.367-1.66 8.331h3.557c0-4.957 1.68-9.16 5.04-12.611 3.36-3.45 7.51-5.177 12.451-5.177h1.304l-4.326 4.33 2.49 2.49 8.715-8.716zm-9.783 21.61v13.89h11.382v5.018H19.725V142h12.727a2.93 2.93 0 0 0 2.15-.896 2.93 2.93 0 0 0 .896-2.15v-7.798c0-.837-.299-1.554-.896-2.152a2.93 2.93 0 0 0-2.15-.896h-8.245V123h11.29v-4.392z">
      </path>
    </symbol>
    <symbol viewBox="0 96 48 48" id="vjs-icon-forward-10">
      <path
        d="M23.119 97l-2.386 2.383 4.538 4.538h-1.339c-2.908 0-5.633.543-8.173 1.63-2.54 1.085-4.76 2.577-6.66 4.478-1.9 1.9-3.392 4.12-4.478 6.66-1.085 2.54-1.629 5.264-1.629 8.172h3.49c0-4.863 1.648-8.986 4.944-12.372 3.297-3.385 7.368-5.078 12.216-5.078h1.279l-4.245 4.247 2.443 2.442 8.55-8.55zm-9.52 21.45v4.42h4.871V142h4.513v-23.55zm18.136 0c-1.125 0-2.066.377-2.824 1.135-.764.764-1.148 1.709-1.148 2.834v15.612c0 1.124.38 2.066 1.139 2.824.764.764 1.708 1.145 2.833 1.145h7.489c1.125 0 2.066-.378 2.824-1.136.764-.764 1.145-1.709 1.145-2.833v-15.612c0-1.125-.378-2.067-1.136-2.825-.764-.764-1.708-1.145-2.833-1.145zm.54 4.42h6.408v14.617h-6.407z">
      </path>
    </symbol>
    <symbol viewBox="0 96 48 48" id="vjs-icon-forward-30">
      <path
        d="M25.549 97l-2.437 2.434 4.634 4.635H26.38c-2.97 0-5.753.555-8.347 1.664-2.594 1.109-4.861 2.633-6.802 4.574-1.94 1.94-3.465 4.207-4.574 6.802-1.109 2.594-1.664 5.377-1.664 8.347h3.565c0-4.967 1.683-9.178 5.05-12.636 3.366-3.458 7.525-5.187 12.475-5.187h1.307l-4.335 4.338 2.495 2.494 8.732-8.732zm-11.553 20.53v4.689h10.297v5.249h-6.978v4.688h6.978v5.156H13.996V142h10.808c1.06 0 1.948-.395 2.666-1.186.718-.79 1.077-1.771 1.077-2.94v-16.217c0-1.169-.36-2.15-1.077-2.94-.718-.79-1.605-1.186-2.666-1.186zm21.174.168c-1.149 0-2.11.389-2.884 1.163-.78.78-1.172 1.745-1.172 2.894v15.942c0 1.15.388 2.11 1.162 2.885.78.78 1.745 1.17 2.894 1.17h7.649c1.149 0 2.11-.386 2.885-1.16.78-.78 1.17-1.746 1.17-2.895v-15.942c0-1.15-.387-2.11-1.161-2.885-.78-.78-1.745-1.172-2.894-1.172zm.552 4.516h6.542v14.931h-6.542z">
      </path>
    </symbol>
    <symbol viewBox="0 0 512 512" id="vjs-icon-audio-description">
      <g fill-rule="evenodd">
        <path
          d="M227.29 381.351V162.993c50.38-1.017 89.108-3.028 117.631 17.126 27.374 19.342 48.734 56.965 44.89 105.325-4.067 51.155-41.335 94.139-89.776 98.475-24.085 2.155-71.972 0-71.972 0s-.84-1.352-.773-2.568m48.755-54.804c31.43 1.26 53.208-16.633 56.495-45.386 4.403-38.51-21.188-63.552-58.041-60.796v103.612c-.036 1.466.575 2.22 1.546 2.57">
        </path>
        <path
          d="M383.78 381.328c13.336 3.71 17.387-11.06 23.215-21.408 12.722-22.571 22.294-51.594 22.445-84.774.221-47.594-18.343-82.517-35.6-106.182h-8.51c-.587 3.874 2.226 7.315 3.865 10.276 13.166 23.762 25.367 56.553 25.54 94.194.2 43.176-14.162 79.278-30.955 107.894">
        </path>
        <path
          d="M425.154 381.328c13.336 3.71 17.384-11.061 23.215-21.408 12.721-22.571 22.291-51.594 22.445-84.774.221-47.594-18.343-82.517-35.6-106.182h-8.511c-.586 3.874 2.226 7.315 3.866 10.276 13.166 23.762 25.367 56.553 25.54 94.194.2 43.176-14.162 79.278-30.955 107.894">
        </path>
        <path
          d="M466.26 381.328c13.337 3.71 17.385-11.061 23.216-21.408 12.722-22.571 22.292-51.594 22.445-84.774.221-47.594-18.343-82.517-35.6-106.182h-8.51c-.587 3.874 2.225 7.315 3.865 10.276 13.166 23.762 25.367 56.553 25.54 94.194.2 43.176-14.162 79.278-30.955 107.894M4.477 383.005H72.58l18.573-28.484 64.169-.135s.065 19.413.065 28.62h48.756V160.307h-58.816c-5.653 9.537-140.85 222.697-140.85 222.697zm152.667-145.282v71.158l-40.453-.27 40.453-70.888z">
        </path>
      </g>
    </symbol>
    <symbol viewBox="0 0 48 48" id="vjs-icon-next-item">
      <path d="M12 36l17-12-17-12v24zm20-24v24h4V12h-4z"></path>
    </symbol>
    <symbol viewBox="0 0 48 48" id="vjs-icon-previous-item">
      <path d="M12 12h4v24h-4zm7 12l17 12V12z"></path>
    </symbol>
    <symbol viewBox="0 0 48 48" id="vjs-icon-shuffle">
      <path
        d="M21.17 18.34L10.83 8 8 10.83l10.34 10.34 2.83-2.83zM29 8l4.09 4.09L8 37.17 10.83 40l25.09-25.09L40 19V8H29zm.66 18.83l-2.83 2.83 6.26 6.26L29 40h11V29l-4.09 4.09-6.25-6.26z">
      </path>
    </symbol>
    <symbol viewBox="0 0 48 48" id="vjs-icon-cast">
      <path
        d="M42 6H6c-2.21 0-4 1.79-4 4v6h4v-6h36v28H28v4h14c2.21 0 4-1.79 4-4V10c0-2.21-1.79-4-4-4zM2 36v6h6c0-3.31-2.69-6-6-6zm0-8v4c5.52 0 10 4.48 10 10h4c0-7.73-6.27-14-14-14zm0-8v4c9.94 0 18 8.06 18 18h4c0-12.15-9.85-22-22-22z">
      </path>
    </symbol>
    <symbol viewBox="0 0 48 48" id="vjs-icon-picture-in-picture-enter">
      <path
        style="fill:none;stroke-width:22;stroke-linecap:butt;stroke-linejoin:round;stroke:rgb(6.27451%,9.019608%,17.647059%);stroke-opacity:1;stroke-miterlimit:4;"
        d="M 71.982422 190.3125 L 71.982422 375.498047 L 341.208984 375.498047 "
        transform="matrix(0.0952381,0,0,0.0952381,0,0)" />
      <path
        style="fill:none;stroke-width:22;stroke-linecap:butt;stroke-linejoin:round;stroke:rgb(6.27451%,9.019608%,17.647059%);stroke-opacity:1;stroke-miterlimit:4;"
        d="M 430.992188 270.005859 L 296.994141 270.005859 L 296.994141 375.005859 L 430.992188 375.005859 Z M 430.992188 270.005859 "
        transform="matrix(0.0952381,0,0,0.0952381,0,0)" />
      <path
        style="fill:none;stroke-width:22;stroke-linecap:butt;stroke-linejoin:round;stroke:rgb(6.27451%,9.019608%,17.647059%);stroke-opacity:1;stroke-miterlimit:4;"
        d="M 431.238281 269.759766 L 431.238281 128.666016 L 76.822266 128.009766 L 219.802734 270.005859 L 119.273438 270.457031 "
        transform="matrix(0.0952381,0,0,0.0952381,0,0)" />
      <path
        style="fill:none;stroke-width:22;stroke-linecap:butt;stroke-linejoin:round;stroke:rgb(6.27451%,9.019608%,17.647059%);stroke-opacity:1;stroke-miterlimit:4;"
        d="M 227.841797 230.302734 L 227.841797 158.484375 " transform="matrix(0.0952381,0,0,0.0952381,0,0)" />

    </symbol>
    <symbol viewBox="0 0 48 48" id="vjs-icon-picture-in-picture-exit">
      <path
        style="fill:none;stroke-width:22;stroke-linecap:butt;stroke-linejoin:round;stroke:rgb(6.27451%,9.019608%,17.647059%);stroke-opacity:1;stroke-miterlimit:4;"
        d="M 71.982422 190.3125 L 71.982422 375.498047 L 341.208984 375.498047 "
        transform="matrix(0.0952381,0,0,0.0952381,0,0)" />
      <path
        style="fill:none;stroke-width:22;stroke-linecap:butt;stroke-linejoin:round;stroke:rgb(6.27451%,9.019608%,17.647059%);stroke-opacity:1;stroke-miterlimit:4;"
        d="M 430.992188 270.005859 L 296.994141 270.005859 L 296.994141 375.005859 L 430.992188 375.005859 Z M 430.992188 270.005859 "
        transform="matrix(0.0952381,0,0,0.0952381,0,0)" />
      <path
        style="fill:none;stroke-width:22;stroke-linecap:butt;stroke-linejoin:round;stroke:rgb(6.27451%,9.019608%,17.647059%);stroke-opacity:1;stroke-miterlimit:4;"
        d="M 431.238281 269.759766 L 431.238281 128.666016 L 76.822266 128.009766 L 219.802734 270.005859 L 119.273438 270.457031 "
        transform="matrix(0.0952381,0,0,0.0952381,0,0)" />
      <path
        style="fill:none;stroke-width:22;stroke-linecap:butt;stroke-linejoin:round;stroke:rgb(6.27451%,9.019608%,17.647059%);stroke-opacity:1;stroke-miterlimit:4;"
        d="M 227.841797 230.302734 L 227.841797 158.484375 " transform="matrix(0.0952381,0,0,0.0952381,0,0)" />

    </symbol>
    <symbol viewBox="0 0 1792 1792" id="vjs-icon-facebook">
      <path
        d="M1343 12v264h-157q-86 0-116 36t-30 108v189h293l-39 296h-254v759H734V905H479V609h255V391q0-186 104-288.5T1115 0q147 0 228 12z">
      </path>
    </symbol>
    <symbol viewBox="0 0 1792 1792" id="vjs-icon-linkedin">
      <path
        d="M477 625v991H147V625h330zm21-306q1 73-50.5 122T312 490h-2q-82 0-132-49t-50-122q0-74 51.5-122.5T314 148t133 48.5T498 319zm1166 729v568h-329v-530q0-105-40.5-164.5T1168 862q-63 0-105.5 34.5T999 982q-11 30-11 81v553H659q2-399 2-647t-1-296l-1-48h329v144h-2q20-32 41-56t56.5-52 87-43.5T1285 602q171 0 275 113.5t104 332.5z">
      </path>
    </symbol>
    <symbol viewBox="0 0 1792 1792" id="vjs-icon-twitter">
      <path
        d="M1684 408q-67 98-162 167 1 14 1 42 0 130-38 259.5T1369.5 1125 1185 1335.5t-258 146-323 54.5q-271 0-496-145 35 4 78 4 225 0 401-138-105-2-188-64.5T285 1033q33 5 61 5 43 0 85-11-112-23-185.5-111.5T172 710v-4q68 38 146 41-66-44-105-115t-39-154q0-88 44-163 121 149 294.5 238.5T884 653q-8-38-8-74 0-134 94.5-228.5T1199 256q140 0 236 102 109-21 205-78-37 115-142 178 93-10 186-50z">
      </path>
    </symbol>
    <symbol viewBox="0 0 1792 1792" id="vjs-icon-tumblr">
      <path
        d="M1328 1329l80 237q-23 35-111 66t-177 32q-104 2-190.5-26T787 1564t-95-106-55.5-120-16.5-118V676H452V461q72-26 129-69.5t91-90 58-102 34-99T779 12q1-5 4.5-8.5T791 0h244v424h333v252h-334v518q0 30 6.5 56t22.5 52.5 49.5 41.5 81.5 14q78-2 134-29z">
      </path>
    </symbol>
    <symbol viewBox="0 0 1792 1792" id="vjs-icon-pinterest">
      <path
        d="M1664 896q0 209-103 385.5T1281.5 1561 896 1664q-111 0-218-32 59-93 78-164 9-34 54-211 20 39 73 67.5t114 28.5q121 0 216-68.5t147-188.5 52-270q0-114-59.5-214T1180 449t-255-63q-105 0-196 29t-154.5 77-109 110.5-67 129.5T377 866q0 104 40 183t117 111q30 12 38-20 2-7 8-31t8-30q6-23-11-43-51-61-51-151 0-151 104.5-259.5T904 517q151 0 235.5 82t84.5 213q0 170-68.5 289T980 1220q-61 0-98-43.5T859 1072q8-35 26.5-93.5t30-103T927 800q0-50-27-83t-77-33q-62 0-105 57t-43 142q0 73 25 122l-99 418q-17 70-13 177-206-91-333-281T128 896q0-209 103-385.5T510.5 231 896 128t385.5 103T1561 510.5 1664 896z">
      </path>
    </symbol>
  </defs>
</svg>